<svg width="13" height="15" viewBox="0 0 13 15" fill="none" xmlns="http://www.w3.org/2000/svg">
<path d="M5.526 3.61914L1.65907 7.56914C1.47444 7.75129 1.22715 7.85209 0.970464 7.84981C0.713781 7.84753 0.468243 7.74236 0.286734 7.55695C0.105225 7.37155 0.00226751 7.12073 3.70076e-05 6.85854C-0.0021935 6.59634 0.0964812 6.34374 0.274808 6.15514L5.81284 0.498136C5.90355 0.404951 6.01139 0.331002 6.13017 0.280541C6.24895 0.230079 6.37633 0.204102 6.50497 0.204102C6.63362 0.204102 6.76099 0.230079 6.87978 0.280541C6.99856 0.331002 7.1064 0.404951 7.19711 0.498136L12.7351 6.15514C12.9091 6.34459 13.004 6.59572 12.9999 6.85541C12.9957 7.11509 12.8929 7.36294 12.713 7.54653C12.5332 7.73011 12.2905 7.83502 12.0362 7.83905C11.782 7.84308 11.5362 7.74593 11.3509 7.56814L7.48394 3.61814V13.2041C7.48394 13.4694 7.3808 13.7237 7.19721 13.9112C7.01362 14.0988 6.76461 14.2041 6.50497 14.2041C6.24534 14.2041 5.99633 14.0988 5.81274 13.9112C5.62915 13.7237 5.526 13.4694 5.526 13.2041V3.61914Z" fill="black"/>
</svg>
